<svg xmlns="http://www.w3.org/2000/svg" version="1.1" xmlns:xlink="http://www.w3.org/1999/xlink" xmlns:svgjs="http://svgjs.dev/svgjs" width="1000" height="1000" viewBox="0 0 1000 1000"><rect width="1000" height="1000" fill="#ff5858"></rect><g transform="matrix(0.7,0,0,0.7,149.99741997168775,259.3949917417399)"><svg viewBox="0 0 359 247" data-background-color="#ff5858" preserveAspectRatio="xMidYMid meet" height="688" width="1000" xmlns="http://www.w3.org/2000/svg" xmlns:xlink="http://www.w3.org/1999/xlink"><g id="tight-bounds" transform="matrix(1,0,0,1,0.0013231859487063957,-0.10000614661490204)"><svg viewBox="0 0 358.9973474801061 247.2" height="247.2" width="358.9973474801061"><g><svg viewBox="0 0 358.9973474801061 247.2" height="247.2" width="358.9973474801061"><g><svg viewBox="0 0 358.9973474801061 247.2" height="247.2" width="358.9973474801061"><g><svg viewBox="0 0 358.9973474801061 247.2" height="247.2" width="358.9973474801061"><g><svg viewBox="0 0 358.9973474801061 247.2" height="247.2" width="358.9973474801061"><g id="textblocktransform"><svg viewBox="0 0 358.9973474801061 247.2" height="247.2" width="358.9973474801061" id="textblock"><g><svg viewBox="0 0 358.9973474801061 247.2" height="247.2" width="358.9973474801061"><g transform="matrix(1,0,0,1,0,0)"><svg width="358.9973474801061" viewBox="0 -35.400001525878906 53.459999084472656 36.81999969482422" height="247.2" data-palette-color="#ffffff"><path d="M11.38-35.4L11.38-35.4 15.09-35.16Q16.46-29.1 20.7-18.04 24.95-6.98 26.32-1.51L26.32-1.51Q26.32-0.1 25.83 0.61 25.34 1.32 24.61 1.32L24.61 1.32Q23.97 1.32 23.41 0.81 22.85 0.29 22.66-0.63L22.66-0.63Q22.22-2.78 19.82-9.23L19.82-9.23Q9.77-10.5 7.18-10.79L7.18-10.79Q6.54-9.03 5.62-5.08 4.69-1.12 4.15 0.39L4.15 0.39Q3.42 1.27 2.49 1.27L2.49 1.27Q1.46 1.27 0.73 0.37 0-0.54 0-1.86L0-1.86Q1.56-7.57 5.66-18.65 9.77-29.74 11.38-35.4ZM13.09-30.47L13.09-30.47Q12.11-24.56 7.67-13.13L7.67-13.13 13.13-13.13Q16.85-13.13 19.34-12.89L19.34-12.89Q14.31-23.68 13.09-30.47ZM29-6.1L29-6.1Q30.32-6.1 31.22-4.96 32.13-3.81 32.13-2.34L32.13-2.34Q32.13-1.27 31.61-0.61 31.1 0.05 30.22 0.05L30.22 0.05Q28.85 0.05 28.05-1.07 27.24-2.2 27.24-3.71L27.24-3.71Q27.24-4.79 27.71-5.44 28.17-6.1 29-6.1ZM35.1-10.4L35.1-10.4Q35.1-12.35 35.52-14.75 35.93-17.14 36.76-19.78 37.59-22.41 39.25-24.17 40.91-25.93 43.11-25.93L43.11-25.93Q47.8-25.93 50.63-21.7 53.46-17.48 53.46-12.3L53.46-12.3Q53.46-10.11 53-7.93 52.53-5.76 51.56-3.66 50.58-1.56 48.75-0.17 46.92 1.22 44.48 1.42L44.48 1.42Q39.99 0.83 37.54-2.42 35.1-5.66 35.1-10.4ZM43.4-23.39L43.4-23.39Q41.69-23.19 40.52-20.26 39.35-17.33 39.01-14.58 38.67-11.82 38.67-9.72L38.67-9.72Q38.67-6.98 40.35-4.66 42.04-2.34 44.14-2.34L44.14-2.34Q45.65-2.34 46.87-3.52 48.09-4.69 48.8-6.42 49.51-8.15 49.87-9.91 50.24-11.67 50.24-13.04L50.24-13.04Q50.24-17.04 48.43-20.02 46.63-23 43.4-23.39Z" opacity="1" transform="matrix(1,0,0,1,0,0)" fill="#ffffff" class="wordmark-text-0" data-fill-palette-color="primary" id="text-0"></path></svg></g></svg></g></svg></g></svg></g></svg></g></svg></g></svg></g><defs></defs></svg><rect width="358.9973474801061" height="247.2" fill="none" stroke="none" visibility="hidden"></rect></g></svg></g></svg>